<svg width="66" height="15" viewBox="0 0 66 15" fill="none" xmlns="http://www.w3.org/2000/svg">
<path d="M7.445 0.499999H9.875V11H7.445V0.499999ZM2.675 11H0.245V0.499999H2.675V11ZM7.625 6.695H2.495V4.64H7.625V6.695ZM13.2143 14.03C12.7943 14.03 12.3793 13.965 11.9693 13.835C11.5593 13.705 11.2243 13.525 10.9643 13.295L11.8193 11.63C11.9993 11.79 12.2043 11.915 12.4343 12.005C12.6743 12.095 12.9093 12.14 13.1393 12.14C13.4693 12.14 13.7293 12.06 13.9193 11.9C14.1193 11.75 14.2993 11.495 14.4593 11.135L14.8793 10.145L15.0593 9.89L17.9543 2.93H20.2043L16.5593 11.495C16.2993 12.145 15.9993 12.655 15.6593 13.025C15.3293 13.395 14.9593 13.655 14.5493 13.805C14.1493 13.955 13.7043 14.03 13.2143 14.03ZM14.5943 11.315L10.9943 2.93H13.4093L16.1993 9.68L14.5943 11.315ZM26.0641 2.81C26.7041 2.81 27.2741 2.94 27.7741 3.2C28.2841 3.45 28.6841 3.84 28.9741 4.37C29.2641 4.89 29.4091 5.56 29.4091 6.38V11H27.0691V6.74C27.0691 6.09 26.9241 5.61 26.6341 5.3C26.3541 4.99 25.9541 4.835 25.4341 4.835C25.0641 4.835 24.7291 4.915 24.4291 5.075C24.1391 5.225 23.9091 5.46 23.7391 5.78C23.5791 6.1 23.4991 6.51 23.4991 7.01V11H21.1591V2.93H23.3941V5.165L22.9741 4.49C23.2641 3.95 23.6791 3.535 24.2191 3.245C24.7591 2.955 25.3741 2.81 26.0641 2.81ZM35.5938 11.12C34.6738 11.12 33.8638 10.94 33.1638 10.58C32.4738 10.22 31.9388 9.73 31.5588 9.11C31.1788 8.48 30.9888 7.765 30.9888 6.965C30.9888 6.155 31.1738 5.44 31.5438 4.82C31.9238 4.19 32.4388 3.7 33.0888 3.35C33.7388 2.99 34.4738 2.81 35.2938 2.81C36.0838 2.81 36.7938 2.98 37.4238 3.32C38.0638 3.65 38.5688 4.13 38.9388 4.76C39.3088 5.38 39.4938 6.125 39.4938 6.995C39.4938 7.085 39.4888 7.19 39.4788 7.31C39.4688 7.42 39.4588 7.525 39.4488 7.625H32.8938V6.26H38.2188L37.3188 6.665C37.3188 6.245 37.2338 5.88 37.0638 5.57C36.8938 5.26 36.6588 5.02 36.3588 4.85C36.0588 4.67 35.7088 4.58 35.3088 4.58C34.9088 4.58 34.5538 4.67 34.2438 4.85C33.9438 5.02 33.7088 5.265 33.5388 5.585C33.3688 5.895 33.2838 6.265 33.2838 6.695V7.055C33.2838 7.495 33.3788 7.885 33.5688 8.225C33.7688 8.555 34.0438 8.81 34.3938 8.99C34.7538 9.16 35.1738 9.245 35.6538 9.245C36.0838 9.245 36.4588 9.18 36.7788 9.05C37.1088 8.92 37.4088 8.725 37.6788 8.465L38.9238 9.815C38.5538 10.235 38.0888 10.56 37.5288 10.79C36.9688 11.01 36.3238 11.12 35.5938 11.12ZM41.0517 11V2.93H43.2867V5.21L42.9717 4.55C43.2117 3.98 43.5967 3.55 44.1267 3.26C44.6567 2.96 45.3017 2.81 46.0617 2.81V4.97C45.9617 4.96 45.8717 4.955 45.7917 4.955C45.7117 4.945 45.6267 4.94 45.5367 4.94C44.8967 4.94 44.3767 5.125 43.9767 5.495C43.5867 5.855 43.3917 6.42 43.3917 7.19V11H41.0517ZM51.1895 14.03C50.4295 14.03 49.6945 13.935 48.9845 13.745C48.2845 13.565 47.6995 13.29 47.2295 12.92L48.1595 11.24C48.4995 11.52 48.9295 11.74 49.4495 11.9C49.9795 12.07 50.4995 12.155 51.0095 12.155C51.8395 12.155 52.4395 11.97 52.8095 11.6C53.1895 11.23 53.3795 10.68 53.3795 9.95V8.735L53.5295 6.71L53.4995 4.67V2.93H55.7195V9.65C55.7195 11.15 55.3295 12.255 54.5495 12.965C53.7695 13.675 52.6495 14.03 51.1895 14.03ZM50.8295 10.61C50.0795 10.61 49.3995 10.45 48.7895 10.13C48.1895 9.8 47.7045 9.345 47.3345 8.765C46.9745 8.175 46.7945 7.49 46.7945 6.71C46.7945 5.92 46.9745 5.235 47.3345 4.655C47.7045 4.065 48.1895 3.61 48.7895 3.29C49.3995 2.97 50.0795 2.81 50.8295 2.81C51.5095 2.81 52.1095 2.95 52.6295 3.23C53.1495 3.5 53.5545 3.925 53.8445 4.505C54.1345 5.075 54.2795 5.81 54.2795 6.71C54.2795 7.6 54.1345 8.335 53.8445 8.915C53.5545 9.485 53.1495 9.91 52.6295 10.19C52.1095 10.47 51.5095 10.61 50.8295 10.61ZM51.2945 8.69C51.7045 8.69 52.0695 8.61 52.3895 8.45C52.7095 8.28 52.9595 8.045 53.1395 7.745C53.3195 7.445 53.4095 7.1 53.4095 6.71C53.4095 6.31 53.3195 5.965 53.1395 5.675C52.9595 5.375 52.7095 5.145 52.3895 4.985C52.0695 4.815 51.7045 4.73 51.2945 4.73C50.8845 4.73 50.5195 4.815 50.1995 4.985C49.8795 5.145 49.6245 5.375 49.4345 5.675C49.2545 5.965 49.1645 6.31 49.1645 6.71C49.1645 7.1 49.2545 7.445 49.4345 7.745C49.6245 8.045 49.8795 8.28 50.1995 8.45C50.5195 8.61 50.8845 8.69 51.2945 8.69ZM58.9174 14.03C58.4974 14.03 58.0824 13.965 57.6724 13.835C57.2624 13.705 56.9274 13.525 56.6674 13.295L57.5224 11.63C57.7024 11.79 57.9074 11.915 58.1374 12.005C58.3774 12.095 58.6124 12.14 58.8424 12.14C59.1724 12.14 59.4324 12.06 59.6224 11.9C59.8224 11.75 60.0024 11.495 60.1624 11.135L60.5824 10.145L60.7624 9.89L63.6574 2.93H65.9074L62.2624 11.495C62.0024 12.145 61.7024 12.655 61.3624 13.025C61.0324 13.395 60.6624 13.655 60.2524 13.805C59.8524 13.955 59.4074 14.03 58.9174 14.03ZM60.2974 11.315L56.6974 2.93H59.1124L61.9024 9.68L60.2974 11.315Z" fill="url(#paint0_linear_1_4)"/>
<defs>
<linearGradient id="paint0_linear_1_4" x1="92.5" y1="11" x2="16.5" y2="19.5" gradientUnits="userSpaceOnUse">
<stop stop-color="#FEFFFF"/>
<stop offset="1" stop-color="#1D818C"/>
</linearGradient>
</defs>
</svg>
