<svg width="30" height="30" viewBox="0 0 30 30" fill="none" xmlns="http://www.w3.org/2000/svg">
<path d="M15 10C14.6415 10 14.2831 10.12 14.0099 10.3596L5.41028 17.9028C4.86324 18.3826 4.86324 19.1606 5.41028 19.6403C5.95711 20.1199 6.84387 20.1199 7.39096 19.6403L15 12.9657L22.609 19.64C23.1561 20.1197 24.0427 20.1197 24.5895 19.64C25.1368 19.1604 25.1368 18.3824 24.5895 17.9026L15.9901 10.3594C15.7167 10.1198 15.3583 10 15 10Z" fill="#1D818C"/>
<path d="M15 10C14.6415 10 14.2831 10.12 14.0099 10.3596L5.41028 17.9028C4.86324 18.3826 4.86324 19.1606 5.41028 19.6403C5.95711 20.1199 6.84387 20.1199 7.39096 19.6403L15 12.9657L22.609 19.64C23.1561 20.1197 24.0427 20.1197 24.5895 19.64C25.1368 19.1604 25.1368 18.3824 24.5895 17.9026L15.9901 10.3594C15.7167 10.1198 15.3583 10 15 10Z" fill="black" fill-opacity="0.2"/>
<rect x="0.5" y="0.5" width="29" height="29" rx="4.5" stroke="#1D818C"/>
<rect x="0.5" y="0.5" width="29" height="29" rx="4.5" stroke="black" stroke-opacity="0.2"/>
</svg>
